<svg xmlns="http://www.w3.org/2000/svg" xmlns:xlink="http://www.w3.org/1999/xlink" width="186" zoomAndPan="magnify" viewBox="0 0 139.5 139.499994" height="186" preserveAspectRatio="xMidYMid meet" version="1.0"><defs><clipPath id="c4826dd997"><path d="M 0 0 L 139 0 L 139 139 L 0 139 Z M 0 0 " clip-rule="nonzero"/></clipPath></defs><g clip-path="url(#c4826dd997)"><path fill="#f3ec4e" d="M 69.75 0 C 31.214844 0 0 31.214844 0 69.75 C 0 108.285156 31.214844 139.5 69.75 139.5 C 108.285156 139.5 139.5 108.285156 139.5 69.75 C 139.5 31.214844 108.285156 0 69.75 0 Z M 69.75 125.550781 C 38.921875 125.550781 13.949219 100.578125 13.949219 69.75 C 13.949219 38.921875 38.921875 13.949219 69.75 13.949219 C 100.578125 13.949219 125.550781 38.921875 125.550781 69.75 C 125.550781 100.578125 100.578125 125.550781 69.75 125.550781 Z M 69.75 125.550781 " fill-opacity="1" fill-rule="nonzero"/></g></svg>